<mxfile host="app.diagrams.net" agent="Mozilla/5.0 (Windows NT 10.0; Win64; x64) AppleWebKit/537.36 (KHTML, like Gecko) Chrome/128.0.0.0 Safari/537.36 OPR/114.0.0.0" version="24.8.4">
  <diagram name="Seite-1" id="IMxDhp_rtM4md5STm61k">
    <mxGraphModel dx="2439" dy="1356" grid="0" gridSize="10" guides="1" tooltips="1" connect="1" arrows="1" fold="1" page="0" pageScale="1" pageWidth="827" pageHeight="1169" math="0" shadow="0">
      <root>
        <mxCell id="0" />
        <mxCell id="1" parent="0" />
        <mxCell id="ze_i30e7d2Fe4b6_vIbV-18" style="edgeStyle=none;curved=1;rounded=0;orthogonalLoop=1;jettySize=auto;html=1;exitX=1;exitY=1;exitDx=0;exitDy=0;entryX=0;entryY=0;entryDx=0;entryDy=0;fontSize=12;startSize=8;endSize=8;" edge="1" parent="1" source="ze_i30e7d2Fe4b6_vIbV-12" target="ze_i30e7d2Fe4b6_vIbV-15">
          <mxGeometry relative="1" as="geometry" />
        </mxCell>
        <mxCell id="ze_i30e7d2Fe4b6_vIbV-12" value="&lt;code&gt;CategoryID&lt;/code&gt; (PK)" style="ellipse;whiteSpace=wrap;html=1;" vertex="1" parent="1">
          <mxGeometry x="-509" y="-251" width="120" height="80" as="geometry" />
        </mxCell>
        <mxCell id="ze_i30e7d2Fe4b6_vIbV-17" style="edgeStyle=none;curved=1;rounded=0;orthogonalLoop=1;jettySize=auto;html=1;exitX=1;exitY=0.5;exitDx=0;exitDy=0;entryX=0;entryY=0.5;entryDx=0;entryDy=0;fontSize=12;startSize=8;endSize=8;" edge="1" parent="1" source="ze_i30e7d2Fe4b6_vIbV-13" target="ze_i30e7d2Fe4b6_vIbV-15">
          <mxGeometry relative="1" as="geometry" />
        </mxCell>
        <mxCell id="ze_i30e7d2Fe4b6_vIbV-13" value="Name" style="ellipse;whiteSpace=wrap;html=1;" vertex="1" parent="1">
          <mxGeometry x="-513" y="-144" width="120" height="80" as="geometry" />
        </mxCell>
        <mxCell id="ze_i30e7d2Fe4b6_vIbV-19" style="edgeStyle=none;curved=1;rounded=0;orthogonalLoop=1;jettySize=auto;html=1;exitX=0.5;exitY=1;exitDx=0;exitDy=0;entryX=0.5;entryY=0;entryDx=0;entryDy=0;fontSize=12;startSize=8;endSize=8;" edge="1" parent="1" source="ze_i30e7d2Fe4b6_vIbV-14" target="ze_i30e7d2Fe4b6_vIbV-15">
          <mxGeometry relative="1" as="geometry" />
        </mxCell>
        <mxCell id="ze_i30e7d2Fe4b6_vIbV-14" value="Price" style="ellipse;whiteSpace=wrap;html=1;" vertex="1" parent="1">
          <mxGeometry x="-355" y="-251" width="120" height="80" as="geometry" />
        </mxCell>
        <mxCell id="ze_i30e7d2Fe4b6_vIbV-15" value="Preiskategorien" style="rounded=0;whiteSpace=wrap;html=1;" vertex="1" parent="1">
          <mxGeometry x="-348" y="-138" width="120" height="60" as="geometry" />
        </mxCell>
        <mxCell id="ze_i30e7d2Fe4b6_vIbV-20" value="GÃ¤ste" style="rounded=0;whiteSpace=wrap;html=1;" vertex="1" parent="1">
          <mxGeometry x="-345" y="47" width="120" height="60" as="geometry" />
        </mxCell>
        <mxCell id="ze_i30e7d2Fe4b6_vIbV-22" style="edgeStyle=none;curved=1;rounded=0;orthogonalLoop=1;jettySize=auto;html=1;exitX=1;exitY=0.5;exitDx=0;exitDy=0;entryX=0;entryY=0.5;entryDx=0;entryDy=0;fontSize=12;startSize=8;endSize=8;" edge="1" parent="1" source="ze_i30e7d2Fe4b6_vIbV-21" target="ze_i30e7d2Fe4b6_vIbV-20">
          <mxGeometry relative="1" as="geometry" />
        </mxCell>
        <mxCell id="ze_i30e7d2Fe4b6_vIbV-21" value="&lt;code&gt;GastID&lt;/code&gt; (PK)" style="ellipse;whiteSpace=wrap;html=1;" vertex="1" parent="1">
          <mxGeometry x="-515" y="56" width="120" height="80" as="geometry" />
        </mxCell>
        <mxCell id="ze_i30e7d2Fe4b6_vIbV-27" style="edgeStyle=none;curved=1;rounded=0;orthogonalLoop=1;jettySize=auto;html=1;exitX=1;exitY=0;exitDx=0;exitDy=0;entryX=0;entryY=1;entryDx=0;entryDy=0;fontSize=12;startSize=8;endSize=8;" edge="1" parent="1" source="ze_i30e7d2Fe4b6_vIbV-23" target="ze_i30e7d2Fe4b6_vIbV-20">
          <mxGeometry relative="1" as="geometry" />
        </mxCell>
        <mxCell id="ze_i30e7d2Fe4b6_vIbV-23" value="Name" style="ellipse;whiteSpace=wrap;html=1;" vertex="1" parent="1">
          <mxGeometry x="-488" y="147" width="120" height="80" as="geometry" />
        </mxCell>
        <mxCell id="ze_i30e7d2Fe4b6_vIbV-28" style="edgeStyle=none;curved=1;rounded=0;orthogonalLoop=1;jettySize=auto;html=1;exitX=0.5;exitY=0;exitDx=0;exitDy=0;entryX=0.5;entryY=1;entryDx=0;entryDy=0;fontSize=12;startSize=8;endSize=8;" edge="1" parent="1" source="ze_i30e7d2Fe4b6_vIbV-24" target="ze_i30e7d2Fe4b6_vIbV-20">
          <mxGeometry relative="1" as="geometry" />
        </mxCell>
        <mxCell id="ze_i30e7d2Fe4b6_vIbV-24" value="Email" style="ellipse;whiteSpace=wrap;html=1;" vertex="1" parent="1">
          <mxGeometry x="-351" y="155" width="120" height="80" as="geometry" />
        </mxCell>
        <mxCell id="ze_i30e7d2Fe4b6_vIbV-26" style="edgeStyle=none;curved=1;rounded=0;orthogonalLoop=1;jettySize=auto;html=1;exitX=1;exitY=0.5;exitDx=0;exitDy=0;entryX=0;entryY=0;entryDx=0;entryDy=0;fontSize=12;startSize=8;endSize=8;" edge="1" parent="1" source="ze_i30e7d2Fe4b6_vIbV-25" target="ze_i30e7d2Fe4b6_vIbV-20">
          <mxGeometry relative="1" as="geometry" />
        </mxCell>
        <mxCell id="ze_i30e7d2Fe4b6_vIbV-25" value="&lt;code&gt;PreferredCategoryID&lt;/code&gt; (FK zu &lt;code&gt;Preiskategorien&lt;/code&gt;)" style="ellipse;whiteSpace=wrap;html=1;" vertex="1" parent="1">
          <mxGeometry x="-571" y="-39" width="195" height="80" as="geometry" />
        </mxCell>
        <mxCell id="ze_i30e7d2Fe4b6_vIbV-61" style="edgeStyle=none;curved=1;rounded=0;orthogonalLoop=1;jettySize=auto;html=1;exitX=0.5;exitY=0;exitDx=0;exitDy=0;entryX=0.75;entryY=1;entryDx=0;entryDy=0;fontSize=12;startSize=8;endSize=8;" edge="1" parent="1" source="ze_i30e7d2Fe4b6_vIbV-29" target="ze_i30e7d2Fe4b6_vIbV-30">
          <mxGeometry relative="1" as="geometry" />
        </mxCell>
        <mxCell id="ze_i30e7d2Fe4b6_vIbV-29" value="JID (PK)" style="ellipse;whiteSpace=wrap;html=1;" vertex="1" parent="1">
          <mxGeometry x="-26" y="104" width="120" height="80" as="geometry" />
        </mxCell>
        <mxCell id="ze_i30e7d2Fe4b6_vIbV-30" value="Jugendherbergen" style="rounded=0;whiteSpace=wrap;html=1;" vertex="1" parent="1">
          <mxGeometry x="-79" y="4" width="120" height="60" as="geometry" />
        </mxCell>
        <mxCell id="ze_i30e7d2Fe4b6_vIbV-60" style="edgeStyle=none;curved=1;rounded=0;orthogonalLoop=1;jettySize=auto;html=1;exitX=0.5;exitY=0;exitDx=0;exitDy=0;entryX=0.25;entryY=1;entryDx=0;entryDy=0;fontSize=12;startSize=8;endSize=8;" edge="1" parent="1" target="ze_i30e7d2Fe4b6_vIbV-30">
          <mxGeometry relative="1" as="geometry">
            <mxPoint x="-100" y="95" as="sourcePoint" />
          </mxGeometry>
        </mxCell>
        <mxCell id="ze_i30e7d2Fe4b6_vIbV-31" value="Name" style="ellipse;whiteSpace=wrap;html=1;" vertex="1" parent="1">
          <mxGeometry x="-160" y="95" width="120" height="80" as="geometry" />
        </mxCell>
        <mxCell id="ze_i30e7d2Fe4b6_vIbV-34" value="Zimmer" style="rounded=0;whiteSpace=wrap;html=1;" vertex="1" parent="1">
          <mxGeometry x="-79" y="-138" width="120" height="60" as="geometry" />
        </mxCell>
        <mxCell id="ze_i30e7d2Fe4b6_vIbV-59" style="edgeStyle=none;curved=1;rounded=0;orthogonalLoop=1;jettySize=auto;html=1;exitX=0;exitY=0.5;exitDx=0;exitDy=0;entryX=1;entryY=0.25;entryDx=0;entryDy=0;fontSize=12;startSize=8;endSize=8;" edge="1" parent="1" source="ze_i30e7d2Fe4b6_vIbV-35" target="ze_i30e7d2Fe4b6_vIbV-34">
          <mxGeometry relative="1" as="geometry" />
        </mxCell>
        <mxCell id="ze_i30e7d2Fe4b6_vIbV-35" value="&lt;code&gt;ZimmerID&lt;/code&gt; (PK)" style="ellipse;whiteSpace=wrap;html=1;" vertex="1" parent="1">
          <mxGeometry x="201" y="-218" width="120" height="80" as="geometry" />
        </mxCell>
        <mxCell id="ze_i30e7d2Fe4b6_vIbV-54" style="edgeStyle=none;curved=1;rounded=0;orthogonalLoop=1;jettySize=auto;html=1;exitX=1;exitY=1;exitDx=0;exitDy=0;entryX=0;entryY=0;entryDx=0;entryDy=0;fontSize=12;startSize=8;endSize=8;" edge="1" parent="1" source="ze_i30e7d2Fe4b6_vIbV-36" target="ze_i30e7d2Fe4b6_vIbV-34">
          <mxGeometry relative="1" as="geometry" />
        </mxCell>
        <mxCell id="ze_i30e7d2Fe4b6_vIbV-36" value="&lt;code&gt;JID&lt;/code&gt; (FK zu &lt;code&gt;Jugendherbergen&lt;/code&gt;)" style="ellipse;whiteSpace=wrap;html=1;" vertex="1" parent="1">
          <mxGeometry x="-199" y="-257" width="120" height="80" as="geometry" />
        </mxCell>
        <mxCell id="ze_i30e7d2Fe4b6_vIbV-57" style="edgeStyle=none;curved=1;rounded=0;orthogonalLoop=1;jettySize=auto;html=1;exitX=0;exitY=1;exitDx=0;exitDy=0;entryX=0.75;entryY=0;entryDx=0;entryDy=0;fontSize=12;startSize=8;endSize=8;" edge="1" parent="1" source="ze_i30e7d2Fe4b6_vIbV-37" target="ze_i30e7d2Fe4b6_vIbV-34">
          <mxGeometry relative="1" as="geometry" />
        </mxCell>
        <mxCell id="ze_i30e7d2Fe4b6_vIbV-37" value="RoomNumber" style="ellipse;whiteSpace=wrap;html=1;" vertex="1" parent="1">
          <mxGeometry x="114" y="-375" width="120" height="80" as="geometry" />
        </mxCell>
        <mxCell id="ze_i30e7d2Fe4b6_vIbV-58" style="edgeStyle=none;curved=1;rounded=0;orthogonalLoop=1;jettySize=auto;html=1;exitX=0;exitY=0.5;exitDx=0;exitDy=0;entryX=1;entryY=0;entryDx=0;entryDy=0;fontSize=12;startSize=8;endSize=8;" edge="1" parent="1" source="ze_i30e7d2Fe4b6_vIbV-38" target="ze_i30e7d2Fe4b6_vIbV-34">
          <mxGeometry relative="1" as="geometry" />
        </mxCell>
        <mxCell id="ze_i30e7d2Fe4b6_vIbV-38" value="BedCount" style="ellipse;whiteSpace=wrap;html=1;" vertex="1" parent="1">
          <mxGeometry x="172" y="-300" width="120" height="80" as="geometry" />
        </mxCell>
        <mxCell id="ze_i30e7d2Fe4b6_vIbV-56" style="edgeStyle=none;curved=1;rounded=0;orthogonalLoop=1;jettySize=auto;html=1;exitX=0;exitY=1;exitDx=0;exitDy=0;fontSize=12;startSize=8;endSize=8;" edge="1" parent="1" source="ze_i30e7d2Fe4b6_vIbV-39" target="ze_i30e7d2Fe4b6_vIbV-34">
          <mxGeometry relative="1" as="geometry" />
        </mxCell>
        <mxCell id="ze_i30e7d2Fe4b6_vIbV-39" value="&lt;code&gt;CategoryID&lt;/code&gt; (FK zu &lt;code&gt;Preiskategorien&lt;/code&gt;)" style="ellipse;whiteSpace=wrap;html=1;" vertex="1" parent="1">
          <mxGeometry x="-4" y="-352" width="120" height="80" as="geometry" />
        </mxCell>
        <mxCell id="ze_i30e7d2Fe4b6_vIbV-55" style="edgeStyle=none;curved=1;rounded=0;orthogonalLoop=1;jettySize=auto;html=1;exitX=0.5;exitY=1;exitDx=0;exitDy=0;entryX=0.25;entryY=0;entryDx=0;entryDy=0;fontSize=12;startSize=8;endSize=8;" edge="1" parent="1" source="ze_i30e7d2Fe4b6_vIbV-40" target="ze_i30e7d2Fe4b6_vIbV-34">
          <mxGeometry relative="1" as="geometry" />
        </mxCell>
        <mxCell id="ze_i30e7d2Fe4b6_vIbV-40" value="Availability" style="ellipse;whiteSpace=wrap;html=1;" vertex="1" parent="1">
          <mxGeometry x="-135" y="-337" width="120" height="80" as="geometry" />
        </mxCell>
        <mxCell id="ze_i30e7d2Fe4b6_vIbV-41" value="Buchungen" style="rounded=0;whiteSpace=wrap;html=1;" vertex="1" parent="1">
          <mxGeometry x="201" y="-56" width="120" height="60" as="geometry" />
        </mxCell>
        <mxCell id="ze_i30e7d2Fe4b6_vIbV-66" style="edgeStyle=none;curved=1;rounded=0;orthogonalLoop=1;jettySize=auto;html=1;exitX=0;exitY=0.5;exitDx=0;exitDy=0;entryX=1;entryY=0.25;entryDx=0;entryDy=0;fontSize=12;startSize=8;endSize=8;" edge="1" parent="1" source="ze_i30e7d2Fe4b6_vIbV-43" target="ze_i30e7d2Fe4b6_vIbV-41">
          <mxGeometry relative="1" as="geometry" />
        </mxCell>
        <mxCell id="ze_i30e7d2Fe4b6_vIbV-43" value="&lt;code&gt;BuchungID&lt;/code&gt; (PK)" style="ellipse;whiteSpace=wrap;html=1;" vertex="1" parent="1">
          <mxGeometry x="369" y="-56" width="120" height="80" as="geometry" />
        </mxCell>
        <mxCell id="ze_i30e7d2Fe4b6_vIbV-65" style="edgeStyle=none;curved=1;rounded=0;orthogonalLoop=1;jettySize=auto;html=1;exitX=0;exitY=1;exitDx=0;exitDy=0;entryX=1;entryY=0;entryDx=0;entryDy=0;fontSize=12;startSize=8;endSize=8;" edge="1" parent="1" source="ze_i30e7d2Fe4b6_vIbV-44" target="ze_i30e7d2Fe4b6_vIbV-41">
          <mxGeometry relative="1" as="geometry" />
        </mxCell>
        <mxCell id="ze_i30e7d2Fe4b6_vIbV-44" value="&#xa;&lt;code&gt;ZimmerID&lt;/code&gt; (FK zu &lt;code&gt;Zimmer&lt;/code&gt;)&#xa;&#xa;" style="ellipse;whiteSpace=wrap;html=1;" vertex="1" parent="1">
          <mxGeometry x="321" y="-131" width="120" height="80" as="geometry" />
        </mxCell>
        <mxCell id="ze_i30e7d2Fe4b6_vIbV-68" style="edgeStyle=none;curved=1;rounded=0;orthogonalLoop=1;jettySize=auto;html=1;exitX=0.5;exitY=0;exitDx=0;exitDy=0;entryX=1;entryY=0.75;entryDx=0;entryDy=0;fontSize=12;startSize=8;endSize=8;" edge="1" parent="1" source="ze_i30e7d2Fe4b6_vIbV-45" target="ze_i30e7d2Fe4b6_vIbV-41">
          <mxGeometry relative="1" as="geometry" />
        </mxCell>
        <mxCell id="ze_i30e7d2Fe4b6_vIbV-45" value="&#xa;CheckInDatum&#xa;&#xa;" style="ellipse;whiteSpace=wrap;html=1;" vertex="1" parent="1">
          <mxGeometry x="309" y="78" width="120" height="80" as="geometry" />
        </mxCell>
        <mxCell id="ze_i30e7d2Fe4b6_vIbV-67" style="edgeStyle=none;curved=1;rounded=0;orthogonalLoop=1;jettySize=auto;html=1;exitX=0;exitY=0.5;exitDx=0;exitDy=0;entryX=1;entryY=0.5;entryDx=0;entryDy=0;fontSize=12;startSize=8;endSize=8;" edge="1" parent="1" source="ze_i30e7d2Fe4b6_vIbV-47" target="ze_i30e7d2Fe4b6_vIbV-41">
          <mxGeometry relative="1" as="geometry" />
        </mxCell>
        <mxCell id="ze_i30e7d2Fe4b6_vIbV-47" value="&#xa;CheckOutDatum&#xa;&#xa;" style="ellipse;whiteSpace=wrap;html=1;" vertex="1" parent="1">
          <mxGeometry x="402" y="22" width="120" height="80" as="geometry" />
        </mxCell>
        <mxCell id="ze_i30e7d2Fe4b6_vIbV-48" value="&#xa;&lt;strong&gt;Buchung_Gaeste&lt;/strong&gt; (Verbindungstabelle fÃ¼r die Zuordnung von GÃ¤sten zu Buchungen)&#xa;&#xa;" style="rounded=0;whiteSpace=wrap;html=1;" vertex="1" parent="1">
          <mxGeometry x="56" y="255" width="160" height="83" as="geometry" />
        </mxCell>
        <mxCell id="ze_i30e7d2Fe4b6_vIbV-74" style="edgeStyle=none;curved=1;rounded=0;orthogonalLoop=1;jettySize=auto;html=1;exitX=0;exitY=0;exitDx=0;exitDy=0;entryX=0.75;entryY=1;entryDx=0;entryDy=0;fontSize=12;startSize=8;endSize=8;" edge="1" parent="1" source="ze_i30e7d2Fe4b6_vIbV-49" target="ze_i30e7d2Fe4b6_vIbV-48">
          <mxGeometry relative="1" as="geometry" />
        </mxCell>
        <mxCell id="ze_i30e7d2Fe4b6_vIbV-49" value="&lt;code&gt;BuchungID&lt;/code&gt; (FK zu &lt;code&gt;Buchungen&lt;/code&gt;)" style="ellipse;whiteSpace=wrap;html=1;" vertex="1" parent="1">
          <mxGeometry x="177" y="362" width="120" height="80" as="geometry" />
        </mxCell>
        <mxCell id="ze_i30e7d2Fe4b6_vIbV-73" style="edgeStyle=none;curved=1;rounded=0;orthogonalLoop=1;jettySize=auto;html=1;exitX=0.5;exitY=0;exitDx=0;exitDy=0;entryX=0.25;entryY=1;entryDx=0;entryDy=0;fontSize=12;startSize=8;endSize=8;" edge="1" parent="1" source="ze_i30e7d2Fe4b6_vIbV-50" target="ze_i30e7d2Fe4b6_vIbV-48">
          <mxGeometry relative="1" as="geometry" />
        </mxCell>
        <mxCell id="ze_i30e7d2Fe4b6_vIbV-50" value="&lt;code&gt;GastID&lt;/code&gt; (FK zu &lt;code&gt;GÃ¤ste&lt;/code&gt;)" style="ellipse;whiteSpace=wrap;html=1;" vertex="1" parent="1">
          <mxGeometry x="-4" y="367" width="120" height="80" as="geometry" />
        </mxCell>
        <mxCell id="ze_i30e7d2Fe4b6_vIbV-51" value="" style="endArrow=none;html=1;rounded=0;fontSize=12;startSize=8;endSize=8;curved=1;entryX=1;entryY=0.5;entryDx=0;entryDy=0;exitX=0;exitY=0.5;exitDx=0;exitDy=0;" edge="1" parent="1" source="ze_i30e7d2Fe4b6_vIbV-52" target="ze_i30e7d2Fe4b6_vIbV-15">
          <mxGeometry width="50" height="50" relative="1" as="geometry">
            <mxPoint x="-240" y="-33" as="sourcePoint" />
            <mxPoint x="-190" y="-83" as="targetPoint" />
          </mxGeometry>
        </mxCell>
        <mxCell id="ze_i30e7d2Fe4b6_vIbV-53" value="" style="endArrow=none;html=1;rounded=0;fontSize=12;startSize=8;endSize=8;curved=1;entryX=1;entryY=0.5;entryDx=0;entryDy=0;exitX=0;exitY=0.5;exitDx=0;exitDy=0;" edge="1" parent="1" source="ze_i30e7d2Fe4b6_vIbV-34" target="ze_i30e7d2Fe4b6_vIbV-52">
          <mxGeometry width="50" height="50" relative="1" as="geometry">
            <mxPoint x="-79" y="-108" as="sourcePoint" />
            <mxPoint x="-228" y="-108" as="targetPoint" />
          </mxGeometry>
        </mxCell>
        <mxCell id="ze_i30e7d2Fe4b6_vIbV-52" value="1 : 1" style="text;html=1;align=center;verticalAlign=middle;whiteSpace=wrap;rounded=0;fontSize=16;" vertex="1" parent="1">
          <mxGeometry x="-186" y="-123" width="60" height="30" as="geometry" />
        </mxCell>
        <mxCell id="ze_i30e7d2Fe4b6_vIbV-62" value="" style="endArrow=none;html=1;rounded=0;fontSize=12;startSize=8;endSize=8;curved=1;exitX=0.5;exitY=1;exitDx=0;exitDy=0;entryX=0.5;entryY=0;entryDx=0;entryDy=0;" edge="1" parent="1" source="ze_i30e7d2Fe4b6_vIbV-63" target="ze_i30e7d2Fe4b6_vIbV-30">
          <mxGeometry width="50" height="50" relative="1" as="geometry">
            <mxPoint x="-93" y="-83" as="sourcePoint" />
            <mxPoint x="-43" y="-133" as="targetPoint" />
          </mxGeometry>
        </mxCell>
        <mxCell id="ze_i30e7d2Fe4b6_vIbV-64" value="" style="endArrow=none;html=1;rounded=0;fontSize=12;startSize=8;endSize=8;curved=1;exitX=0.5;exitY=1;exitDx=0;exitDy=0;entryX=0.5;entryY=0;entryDx=0;entryDy=0;" edge="1" parent="1" source="ze_i30e7d2Fe4b6_vIbV-34" target="ze_i30e7d2Fe4b6_vIbV-63">
          <mxGeometry width="50" height="50" relative="1" as="geometry">
            <mxPoint x="-19" y="-78" as="sourcePoint" />
            <mxPoint x="-19" y="47" as="targetPoint" />
          </mxGeometry>
        </mxCell>
        <mxCell id="ze_i30e7d2Fe4b6_vIbV-63" value="n : 1" style="text;html=1;align=center;verticalAlign=middle;whiteSpace=wrap;rounded=0;fontSize=16;" vertex="1" parent="1">
          <mxGeometry x="-49" y="-56" width="60" height="30" as="geometry" />
        </mxCell>
        <mxCell id="ze_i30e7d2Fe4b6_vIbV-69" value="" style="endArrow=none;html=1;rounded=0;fontSize=12;startSize=8;endSize=8;curved=1;exitX=0;exitY=0;exitDx=0;exitDy=0;entryX=1;entryY=0.5;entryDx=0;entryDy=0;" edge="1" parent="1" source="ze_i30e7d2Fe4b6_vIbV-70" target="ze_i30e7d2Fe4b6_vIbV-34">
          <mxGeometry width="50" height="50" relative="1" as="geometry">
            <mxPoint x="226" y="-83" as="sourcePoint" />
            <mxPoint x="276" y="-133" as="targetPoint" />
          </mxGeometry>
        </mxCell>
        <mxCell id="ze_i30e7d2Fe4b6_vIbV-72" value="" style="endArrow=none;html=1;rounded=0;fontSize=12;startSize=8;endSize=8;curved=1;exitX=0;exitY=0;exitDx=0;exitDy=0;entryX=1;entryY=0.5;entryDx=0;entryDy=0;" edge="1" parent="1" source="ze_i30e7d2Fe4b6_vIbV-41" target="ze_i30e7d2Fe4b6_vIbV-70">
          <mxGeometry width="50" height="50" relative="1" as="geometry">
            <mxPoint x="201" y="-56" as="sourcePoint" />
            <mxPoint x="41" y="-108" as="targetPoint" />
          </mxGeometry>
        </mxCell>
        <mxCell id="ze_i30e7d2Fe4b6_vIbV-70" value="n : 1" style="text;html=1;align=center;verticalAlign=middle;whiteSpace=wrap;rounded=0;fontSize=16;" vertex="1" parent="1">
          <mxGeometry x="97" y="-90" width="60" height="30" as="geometry" />
        </mxCell>
        <mxCell id="ze_i30e7d2Fe4b6_vIbV-75" value="n : 1" style="text;html=1;align=center;verticalAlign=middle;whiteSpace=wrap;rounded=0;fontSize=16;" vertex="1" parent="1">
          <mxGeometry x="-105" y="235" width="60" height="66" as="geometry" />
        </mxCell>
        <mxCell id="ze_i30e7d2Fe4b6_vIbV-78" value="1 : n" style="text;html=1;align=center;verticalAlign=middle;whiteSpace=wrap;rounded=0;fontSize=16;" vertex="1" parent="1">
          <mxGeometry x="177" y="155" width="60" height="30" as="geometry" />
        </mxCell>
        <mxCell id="ze_i30e7d2Fe4b6_vIbV-79" value="" style="endArrow=none;html=1;rounded=0;fontSize=12;startSize=8;endSize=8;curved=1;exitX=0;exitY=0.5;exitDx=0;exitDy=0;entryX=1;entryY=0.5;entryDx=0;entryDy=0;" edge="1" parent="1" source="ze_i30e7d2Fe4b6_vIbV-48" target="ze_i30e7d2Fe4b6_vIbV-75">
          <mxGeometry width="50" height="50" relative="1" as="geometry">
            <mxPoint x="-25" y="34" as="sourcePoint" />
            <mxPoint x="25" y="-16" as="targetPoint" />
          </mxGeometry>
        </mxCell>
        <mxCell id="ze_i30e7d2Fe4b6_vIbV-80" value="" style="endArrow=none;html=1;rounded=0;fontSize=12;startSize=8;endSize=8;curved=1;exitX=1;exitY=1;exitDx=0;exitDy=0;entryX=0;entryY=0;entryDx=0;entryDy=0;" edge="1" parent="1" source="ze_i30e7d2Fe4b6_vIbV-20" target="ze_i30e7d2Fe4b6_vIbV-75">
          <mxGeometry width="50" height="50" relative="1" as="geometry">
            <mxPoint x="-25" y="34" as="sourcePoint" />
            <mxPoint x="25" y="-16" as="targetPoint" />
          </mxGeometry>
        </mxCell>
        <mxCell id="ze_i30e7d2Fe4b6_vIbV-81" value="" style="endArrow=none;html=1;rounded=0;fontSize=12;startSize=8;endSize=8;curved=1;entryX=0.25;entryY=1;entryDx=0;entryDy=0;exitX=0.5;exitY=0;exitDx=0;exitDy=0;" edge="1" parent="1" source="ze_i30e7d2Fe4b6_vIbV-78" target="ze_i30e7d2Fe4b6_vIbV-41">
          <mxGeometry width="50" height="50" relative="1" as="geometry">
            <mxPoint x="-25" y="34" as="sourcePoint" />
            <mxPoint x="25" y="-16" as="targetPoint" />
          </mxGeometry>
        </mxCell>
        <mxCell id="ze_i30e7d2Fe4b6_vIbV-82" value="" style="endArrow=none;html=1;rounded=0;fontSize=12;startSize=8;endSize=8;curved=1;entryX=0.25;entryY=1;entryDx=0;entryDy=0;exitX=0.75;exitY=0;exitDx=0;exitDy=0;" edge="1" parent="1" source="ze_i30e7d2Fe4b6_vIbV-48" target="ze_i30e7d2Fe4b6_vIbV-78">
          <mxGeometry width="50" height="50" relative="1" as="geometry">
            <mxPoint x="-25" y="34" as="sourcePoint" />
            <mxPoint x="25" y="-16" as="targetPoint" />
          </mxGeometry>
        </mxCell>
      </root>
    </mxGraphModel>
  </diagram>
</mxfile>
